<?xml version="1.0" standalone="no"?>
<!DOCTYPE svg PUBLIC "-//W3C//DTD SVG 20010904//EN"
 "http://www.w3.org/TR/2001/REC-SVG-20010904/DTD/svg10.dtd">
<svg version="1.0" xmlns="http://www.w3.org/2000/svg"
 width="700.000000pt" height="700.000000pt" viewBox="0 0 700.000000 700.000000"
 preserveAspectRatio="xMidYMid meet">
<metadata>
Created by potrace 1.11, written by Peter Selinger 2001-2013
</metadata>
<g transform="translate(0.000000,700.000000) scale(0.100000,-0.100000)"
fill="#000000" stroke="none">
<path d="M934 6496 c4 -50 8 -102 10 -116 3 -14 7 -62 11 -106 3 -45 8 -93 10
-105 2 -13 7 -60 11 -104 3 -44 8 -93 9 -110 3 -36 14 -146 20 -195 2 -19 6
-62 10 -95 3 -33 7 -76 10 -95 2 -19 7 -66 10 -103 4 -37 8 -77 10 -88 2 -10
7 -56 10 -101 4 -46 8 -85 10 -88 1 -3 6 -41 10 -84 4 -43 8 -86 10 -95 1 -9
6 -47 10 -84 3 -37 8 -76 10 -85 1 -9 6 -51 10 -92 4 -41 9 -83 10 -92 2 -9 6
-44 10 -77 3 -33 7 -68 9 -78 2 -10 7 -47 11 -83 4 -36 9 -78 11 -95 2 -16 6
-50 9 -75 3 -25 8 -63 11 -85 12 -84 23 -173 29 -230 3 -27 8 -61 10 -75 8
-43 13 -83 20 -150 4 -36 9 -74 11 -85 2 -10 6 -35 8 -55 8 -60 18 -134 21
-155 2 -11 10 -74 19 -140 10 -66 19 -131 21 -145 2 -14 7 -43 9 -65 3 -22 8
-58 11 -80 21 -148 34 -239 40 -290 3 -27 8 -60 10 -72 3 -12 7 -41 10 -65 3
-24 7 -54 10 -68 2 -14 7 -45 10 -70 4 -25 8 -56 10 -70 7 -40 25 -172 31
-216 3 -23 7 -51 9 -63 3 -17 23 -151 41 -281 2 -19 6 -42 9 -50 2 -8 6 -40
10 -70 3 -30 7 -65 9 -76 3 -12 7 -37 10 -55 3 -19 15 -92 26 -164 12 -71 23
-143 26 -160 3 -16 7 -37 9 -45 2 -8 6 -35 9 -60 3 -25 8 -55 10 -66 2 -12 7
-39 10 -60 8 -49 65 -390 71 -424 3 -14 16 -90 30 -170 14 -80 27 -156 30
-170 7 -34 25 -136 32 -182 l6 -38 682 0 682 0 123 193 c154 238 385 604 455
717 219 356 265 433 265 441 0 5 5 9 10 9 6 0 10 5 10 11 0 6 13 30 28 53 15
22 74 120 130 216 57 96 121 204 143 239 21 34 39 65 39 66 0 2 40 71 88 152
49 82 91 156 95 163 4 8 15 29 26 45 25 43 243 420 276 480 16 28 65 115 110
195 45 80 96 171 113 203 81 147 101 183 192 347 54 96 111 200 128 230 16 30
79 145 139 255 170 310 370 685 523 980 40 77 103 199 140 270 221 426 670
1308 670 1316 0 3 -339 5 -754 5 l-754 0 -46 -95 c-25 -53 -60 -130 -79 -171
-19 -41 -60 -128 -91 -192 -31 -65 -80 -169 -110 -230 -130 -273 -823 -1651
-846 -1683 -4 -5 -54 -100 -110 -210 -56 -110 -125 -243 -153 -295 -94 -179
-140 -265 -167 -315 -15 -27 -48 -88 -72 -135 -25 -47 -60 -112 -78 -145 -122
-223 -192 -353 -202 -370 -6 -11 -25 -45 -41 -75 -16 -30 -38 -68 -47 -85 -10
-16 -33 -59 -52 -95 -97 -180 -421 -760 -424 -757 -3 3 -12 67 -19 132 -3 33
-8 71 -10 85 -2 14 -7 54 -10 90 -3 36 -10 97 -15 135 -5 39 -12 99 -15 135
-4 36 -8 76 -10 90 -1 14 -6 57 -9 95 -4 39 -9 81 -11 95 -2 14 -6 57 -10 95
-3 39 -8 81 -10 95 -2 14 -6 55 -9 92 -4 37 -8 85 -10 105 -3 21 -7 74 -11
118 -3 44 -8 98 -10 120 -2 22 -7 76 -10 120 -4 44 -8 94 -10 110 -2 17 -7 66
-10 110 -3 44 -8 103 -10 130 -7 73 -14 151 -20 230 -3 39 -8 86 -10 105 -2
19 -7 76 -11 125 -3 50 -8 97 -9 105 -2 8 -6 65 -10 125 -4 61 -9 117 -10 125
-2 8 -6 60 -10 115 -4 55 -8 116 -10 135 -2 19 -6 73 -10 120 -3 47 -8 105
-10 130 -2 25 -7 81 -10 125 -3 44 -8 107 -10 140 -10 135 -14 195 -20 300 -3
61 -8 135 -10 165 -2 30 -7 114 -10 185 -4 72 -9 159 -11 195 -2 36 -6 130
-10 210 -4 80 -8 159 -10 175 -1 17 -2 44 -3 61 l-1 30 -761 0 -761 0 6 -90z"/>
</g>
</svg>
